<svg width="568" height="568" viewBox="0 0 568 568" fill="none" xmlns="http://www.w3.org/2000/svg">
<path fill-rule="evenodd" clip-rule="evenodd" d="M35.0069 461.993V496.507H0L0 497.493H35.0069V532.007H0L0 532.993H35.0069V568H35.9931V532.993H70.5069V568H71.4931V532.993H106.007V568H106.993V532.993H141.507V568H142.493V532.993H177.007V568H177.993V532.993H212.507V568H213.493V532.993H248.007V568H248.993V532.993H283.507V568H284.493V532.993H319.007V568H319.993V532.993H354.507V568H355.493V532.993H390.007V568H390.993V532.993H425.507V568H426.493V532.993H461.007V568H461.993V532.993H496.507V568H497.493V532.993H532.007V568H532.993V532.993H568V532.007H532.993V497.493H568V496.507H532.993V461.993H568V461.007H532.993V426.493H568V425.507H532.993V390.993H568V390.007H532.993V355.493H568V354.507H532.993V319.993H568V319.007H532.993V284.493H568V283.507H532.993V248.993H568V248.007H532.993V213.493H568V212.507H532.993V177.993H568V177.007H532.993V142.493H568V141.507H532.993V106.993H568V106.007H532.993V71.4931H568V70.5069H532.993V35.9931H568V35.0069H532.993V0L532.007 0V35.0069H497.493V0L496.507 0V35.0069H461.993V0L461.007 0V35.0069H426.493V0L425.507 0V35.0069H390.993V0L390.007 0V35.0069L355.493 35.0069V0L354.507 0V35.0069H319.993V0L319.007 0V35.0069H284.493V0L283.507 0V35.0069H248.993V0L248.007 0V35.0069H213.493V0L212.507 0V35.0069H177.993V0L177.007 0V35.0069H142.493V0L141.507 0V35.0069L106.993 35.0069V0L106.007 0V35.0069H71.4931V0L70.5069 0V35.0069H35.9931V0L35.0069 0V35.0069H0L0 35.993H35.0069V70.5069H0L0 71.493H35.0069V106.007H0L0 106.993H35.0069L35.0069 141.507H0L0 142.493H35.0069V177.007H0L0 177.993H35.0069V212.507H0L0 213.493H35.0069V248.007H0L0 248.993H35.0069V283.507H0L0 284.493H35.0069V319.007H0L0 319.993H35.0069V354.507H0L0 355.493H35.0069L35.0069 390.007H0L0 390.993H35.0069V425.507H0L0 426.493H35.0069V461.007H0L0 461.993H35.0069ZM532.007 532.007V497.493H497.493V532.007H532.007ZM496.507 532.007V497.493H461.993V532.007H496.507ZM461.007 532.007V497.493H426.493V532.007H461.007ZM425.507 532.007V497.493H390.993V532.007H425.507ZM390.007 532.007V497.493H355.493V532.007H390.007ZM354.507 532.007V497.493H319.993V532.007H354.507ZM319.007 532.007V497.493H284.493V532.007H319.007ZM283.507 532.007V497.493H248.993L248.993 532.007H283.507ZM248.007 532.007L248.007 497.493H213.493L213.493 532.007H248.007ZM212.507 532.007L212.507 497.493H177.993L177.993 532.007H212.507ZM177.007 532.007L177.007 497.493H142.493L142.493 532.007H177.007ZM141.507 532.007L141.507 497.493H106.993V532.007H141.507ZM106.007 532.007V497.493H71.4931V532.007H106.007ZM70.5069 532.007V497.493H35.9931V532.007H70.5069ZM70.5069 496.507H35.9931V461.993H70.5069V496.507ZM106.007 496.507H71.4931V461.993H106.007V496.507ZM141.507 496.507H106.993V461.993H141.507V496.507ZM177.007 496.507H142.493V461.993H177.007V496.507ZM212.507 496.507H177.993V461.993H212.507V496.507ZM248.007 496.507H213.493V461.993H248.007V496.507ZM283.507 496.507H248.993V461.993H283.507V496.507ZM319.007 496.507H284.493V461.993H319.007V496.507ZM354.507 496.507H319.993V461.993H354.507V496.507ZM390.007 496.507H355.493V461.993H390.007V496.507ZM425.507 496.507H390.993V461.993H425.507V496.507ZM461.007 496.507H426.493V461.993H461.007V496.507ZM496.507 496.507H461.993V461.993H496.507V496.507ZM532.007 496.507H497.493V461.993H532.007V496.507ZM532.007 35.9931H497.493V70.5069H532.007V35.9931ZM532.007 71.493H497.493V106.007H532.007V71.493ZM532.007 106.993H497.493V141.507L532.007 141.507V106.993ZM532.007 142.493L497.493 142.493V177.007L532.007 177.007V142.493ZM532.007 177.993L497.493 177.993V212.507L532.007 212.507V177.993ZM532.007 213.493L497.493 213.493V248.007L532.007 248.007V213.493ZM532.007 248.993L497.493 248.993V283.507H532.007V248.993ZM532.007 284.493H497.493V319.007H532.007V284.493ZM532.007 319.993H497.493V354.507H532.007V319.993ZM532.007 355.493H497.493V390.007H532.007V355.493ZM532.007 390.993H497.493V425.507H532.007V390.993ZM532.007 426.493H497.493V461.007H532.007V426.493ZM496.507 426.493V461.007H461.993V426.493H496.507ZM496.507 390.993V425.507H461.993V390.993H496.507ZM496.507 355.493V390.007H461.993V355.493H496.507ZM496.507 319.993V354.507H461.993V319.993H496.507ZM496.507 284.493V319.007H461.993V284.493H496.507ZM496.507 248.993V283.507H461.993V248.993H496.507ZM496.507 213.493V248.007H461.993V213.493H496.507ZM496.507 177.993V212.507H461.993V177.993H496.507ZM496.507 142.493V177.007H461.993V142.493H496.507ZM496.507 106.993V141.507H461.993V106.993H496.507ZM496.507 71.493V106.007H461.993V71.493H496.507ZM496.507 35.9931V70.5069H461.993V35.9931H496.507ZM35.9931 461.007H70.5069V426.493H35.9931V461.007ZM71.4931 461.007H106.007V426.493H71.4931V461.007ZM106.993 461.007H141.507V426.493H106.993V461.007ZM142.493 461.007H177.007V426.493H142.493V461.007ZM177.993 461.007H212.507V426.493H177.993V461.007ZM213.493 461.007H248.007V426.493H213.493V461.007ZM248.993 461.007H283.507V426.493H248.993V461.007ZM284.493 461.007H319.007V426.493H284.493V461.007ZM319.993 461.007H354.507V426.493H319.993V461.007ZM355.493 461.007H390.007V426.493H355.493V461.007ZM390.993 461.007H425.507V426.493H390.993V461.007ZM426.493 461.007H461.007V426.493H426.493V461.007ZM461.007 390.993V425.507H426.493V390.993H461.007ZM461.007 355.493V390.007H426.493V355.493H461.007ZM461.007 319.993V354.507H426.493V319.993H461.007ZM461.007 284.493V319.007H426.493V284.493H461.007ZM461.007 248.993V283.507H426.493V248.993H461.007ZM461.007 213.493V248.007H426.493V213.493H461.007ZM461.007 177.993V212.507H426.493V177.993H461.007ZM461.007 142.493V177.007H426.493V142.493H461.007ZM461.007 106.993V141.507H426.493V106.993H461.007ZM461.007 71.493V106.007H426.493V71.493H461.007ZM461.007 35.993V70.5069H426.493V35.993H461.007ZM35.9931 425.507H70.5069V390.993H35.9931V425.507ZM71.4931 425.507H106.007V390.993H71.4931V425.507ZM106.993 425.507H141.507V390.993H106.993V425.507ZM142.493 425.507H177.007V390.993H142.493V425.507ZM177.993 425.507H212.507V390.993H177.993V425.507ZM213.493 425.507H248.007V390.993H213.493V425.507ZM248.993 425.507H283.507V390.993H248.993V425.507ZM284.493 425.507H319.007V390.993H284.493V425.507ZM319.993 425.507H354.507V390.993H319.993V425.507ZM355.493 425.507H390.007V390.993H355.493V425.507ZM390.993 425.507H425.507V390.993H390.993V425.507ZM425.507 355.493V390.007H390.993V355.493H425.507ZM425.507 319.993V354.507H390.993V319.993H425.507ZM425.507 284.493V319.007H390.993V284.493H425.507ZM425.507 248.993V283.507H390.993V248.993H425.507ZM425.507 213.493V248.007H390.993V213.493H425.507ZM425.507 177.993V212.507H390.993V177.993H425.507ZM425.507 142.493V177.007H390.993V142.493H425.507ZM425.507 106.993V141.507H390.993V106.993H425.507ZM425.507 71.493V106.007H390.993V71.493H425.507ZM425.507 35.993V70.5069H390.993V35.993H425.507ZM35.9931 390.007H70.5069V355.493H35.9931L35.9931 390.007ZM71.4931 390.007H106.007V355.493H71.4931V390.007ZM106.993 390.007H141.507V355.493H106.993V390.007ZM142.493 390.007H177.007V355.493H142.493V390.007ZM177.993 390.007H212.507V355.493H177.993V390.007ZM213.493 390.007H248.007V355.493H213.493V390.007ZM248.993 390.007H283.507V355.493H248.993V390.007ZM284.493 390.007H319.007V355.493H284.493V390.007ZM319.993 390.007H354.507V355.493H319.993V390.007ZM355.493 390.007H390.007V355.493H355.493V390.007ZM390.007 319.993V354.507H355.493V319.993H390.007ZM390.007 284.493V319.007H355.493V284.493H390.007ZM390.007 248.993V283.507H355.493V248.993H390.007ZM390.007 213.493V248.007H355.493V213.493H390.007ZM390.007 177.993V212.507H355.493V177.993H390.007ZM390.007 142.493V177.007H355.493V142.493H390.007ZM390.007 106.993V141.507H355.493V106.993H390.007ZM390.007 71.493V106.007H355.493V71.493H390.007ZM390.007 35.993V70.5069H355.493V35.993L390.007 35.993ZM35.9931 354.507H70.5069V319.993H35.9931V354.507ZM71.4931 354.507H106.007V319.993H71.4931V354.507ZM106.993 354.507H141.507V319.993H106.993V354.507ZM142.493 354.507H177.007V319.993H142.493V354.507ZM177.993 354.507H212.507V319.993H177.993V354.507ZM213.493 354.507H248.007V319.993H213.493V354.507ZM248.993 354.507H283.507V319.993H248.993V354.507ZM284.493 354.507H319.007V319.993H284.493V354.507ZM319.993 354.507H354.507V319.993H319.993V354.507ZM354.507 284.493V319.007H319.993V284.493H354.507ZM354.507 248.993V283.507H319.993V248.993H354.507ZM354.507 213.493V248.007H319.993V213.493H354.507ZM354.507 177.993V212.507H319.993V177.993H354.507ZM354.507 142.493V177.007H319.993V142.493H354.507ZM354.507 106.993V141.507H319.993V106.993H354.507ZM354.507 71.493V106.007H319.993V71.493H354.507ZM354.507 35.993V70.5069H319.993V35.993H354.507ZM35.9931 319.007H70.5069V284.493H35.9931V319.007ZM71.4931 319.007H106.007V284.493H71.4931V319.007ZM106.993 319.007H141.507V284.493H106.993V319.007ZM142.493 319.007H177.007V284.493H142.493V319.007ZM177.993 319.007H212.507V284.493H177.993V319.007ZM213.493 319.007H248.007V284.493H213.493V319.007ZM248.993 319.007H283.507V284.493H248.993V319.007ZM284.493 319.007H319.007V284.493H284.493V319.007ZM319.007 248.993V283.507H284.493V248.993H319.007ZM319.007 213.493V248.007H284.493V213.493H319.007ZM319.007 177.993V212.507H284.493V177.993H319.007ZM319.007 142.493V177.007H284.493V142.493H319.007ZM319.007 106.993V141.507H284.493V106.993H319.007ZM319.007 71.493V106.007H284.493V71.493H319.007ZM319.007 35.993V70.5069H284.493V35.993H319.007ZM35.9931 283.507H70.5069L70.5069 248.993H35.9931V283.507ZM71.4931 283.507H106.007L106.007 248.993H71.4931L71.4931 283.507ZM106.993 283.507H141.507V248.993H106.993L106.993 283.507ZM142.493 283.507H177.007V248.993H142.493V283.507ZM177.993 283.507H212.507V248.993H177.993V283.507ZM213.493 283.507H248.007V248.993H213.493V283.507ZM248.993 283.507H283.507V248.993H248.993V283.507ZM283.507 213.493V248.007H248.993V213.493H283.507ZM283.507 177.993V212.507H248.993V177.993H283.507ZM283.507 142.493V177.007H248.993V142.493H283.507ZM283.507 106.993V141.507H248.993V106.993L283.507 106.993ZM283.507 71.493V106.007L248.993 106.007V71.493L283.507 71.493ZM283.507 35.993V70.5069L248.993 70.5069V35.993H283.507ZM35.9931 248.007H70.5069V213.493H35.9931V248.007ZM71.4931 248.007H106.007V213.493H71.4931V248.007ZM106.993 248.007H141.507V213.493H106.993V248.007ZM142.493 248.007H177.007V213.493H142.493V248.007ZM177.993 248.007H212.507V213.493H177.993V248.007ZM213.493 248.007H248.007V213.493H213.493V248.007ZM248.007 177.993V212.507H213.493V177.993H248.007ZM248.007 142.493V177.007H213.493V142.493H248.007ZM248.007 106.993V141.507H213.493V106.993H248.007ZM248.007 71.493V106.007H213.493V71.493H248.007ZM248.007 35.993V70.5069H213.493V35.993H248.007ZM35.9931 212.507H70.5069V177.993H35.9931V212.507ZM71.4931 212.507H106.007V177.993H71.4931V212.507ZM106.993 212.507H141.507V177.993H106.993V212.507ZM142.493 212.507H177.007V177.993H142.493V212.507ZM177.993 212.507H212.507V177.993H177.993V212.507ZM212.507 142.493V177.007H177.993V142.493H212.507ZM212.507 106.993V141.507H177.993V106.993H212.507ZM212.507 71.493V106.007H177.993V71.493H212.507ZM212.507 35.993V70.5069H177.993V35.993H212.507ZM35.9931 177.007H70.5069V142.493H35.9931V177.007ZM71.4931 177.007H106.007V142.493H71.4931V177.007ZM106.993 177.007H141.507V142.493H106.993V177.007ZM142.493 177.007H177.007V142.493H142.493V177.007ZM177.007 106.993V141.507H142.493V106.993H177.007ZM177.007 71.493V106.007H142.493V71.493H177.007ZM177.007 35.993V70.5069H142.493V35.993H177.007ZM35.9931 141.507H70.5069V106.993H35.9931L35.9931 141.507ZM71.4931 141.507H106.007V106.993H71.4931V141.507ZM106.993 141.507H141.507V106.993H106.993V141.507ZM141.507 71.493V106.007H106.993V71.493H141.507ZM141.507 35.993V70.5069H106.993V35.993L141.507 35.993ZM35.9931 106.007H70.5069V71.493H35.9931V106.007ZM71.4931 106.007H106.007V71.493H71.4931V106.007ZM106.007 35.993V70.5069H71.4931V35.993H106.007ZM35.9931 70.5069H70.5069V35.993H35.9931V70.5069Z" fill="url(#paint0_radial_1563_23)" fill-opacity="0.5"/>
<g opacity="0.6">
<g filter="url(#filter0_f_1563_23)">
<circle cx="284" cy="497" r="3.94444" fill="#FFD700"/>
</g>
<g filter="url(#filter1_f_1563_23)">
<circle cx="284.001" cy="496.999" r="1.97222" fill="#FFD700"/>
</g>
</g>
<g filter="url(#filter2_f_1563_23)">
<circle cx="319.5" cy="106.5" r="3.94444" fill="#FFD700"/>
</g>
<g filter="url(#filter3_f_1563_23)">
<circle cx="319.501" cy="106.499" r="1.97222" fill="#FFD700"/>
</g>
<g filter="url(#filter4_f_1563_23)">
<circle cx="106.5" cy="390.5" r="3.94444" fill="#FFD700"/>
</g>
<g filter="url(#filter5_f_1563_23)">
<circle cx="106.501" cy="390.499" r="1.97222" fill="#FFD700"/>
</g>
<g filter="url(#filter6_f_1563_23)">
<circle cx="461.5" cy="284" r="3.94444" fill="#FFD700"/>
</g>
<g filter="url(#filter7_f_1563_23)">
<circle cx="461.501" cy="283.999" r="1.97222" fill="#FFD700"/>
</g>
<path d="M319.5 71V142" stroke="url(#paint1_radial_1563_23)" stroke-opacity="0.5" stroke-width="0.5"/>
<path d="M355 106.5L284 106.5" stroke="url(#paint2_radial_1563_23)" stroke-opacity="0.5" stroke-width="0.5"/>
<path d="M106.5 355V426" stroke="url(#paint3_radial_1563_23)" stroke-opacity="0.5" stroke-width="0.5"/>
<path d="M142 390.5L71 390.5" stroke="url(#paint4_radial_1563_23)" stroke-opacity="0.5" stroke-width="0.5"/>
<defs>
<filter id="filter0_f_1563_23" x="274.056" y="487.055" width="19.8887" height="19.8889" filterUnits="userSpaceOnUse" color-interpolation-filters="sRGB">
<feFlood flood-opacity="0" result="BackgroundImageFix"/>
<feBlend mode="normal" in="SourceGraphic" in2="BackgroundImageFix" result="shape"/>
<feGaussianBlur stdDeviation="3" result="effect1_foregroundBlur_1563_23"/>
</filter>
<filter id="filter1_f_1563_23" x="280.028" y="493.027" width="7.94434" height="7.94434" filterUnits="userSpaceOnUse" color-interpolation-filters="sRGB">
<feFlood flood-opacity="0" result="BackgroundImageFix"/>
<feBlend mode="normal" in="SourceGraphic" in2="BackgroundImageFix" result="shape"/>
<feGaussianBlur stdDeviation="1" result="effect1_foregroundBlur_1563_23"/>
</filter>
<filter id="filter2_f_1563_23" x="309.556" y="96.5554" width="19.8887" height="19.8889" filterUnits="userSpaceOnUse" color-interpolation-filters="sRGB">
<feFlood flood-opacity="0" result="BackgroundImageFix"/>
<feBlend mode="normal" in="SourceGraphic" in2="BackgroundImageFix" result="shape"/>
<feGaussianBlur stdDeviation="3" result="effect1_foregroundBlur_1563_23"/>
</filter>
<filter id="filter3_f_1563_23" x="315.528" y="102.527" width="7.94434" height="7.94434" filterUnits="userSpaceOnUse" color-interpolation-filters="sRGB">
<feFlood flood-opacity="0" result="BackgroundImageFix"/>
<feBlend mode="normal" in="SourceGraphic" in2="BackgroundImageFix" result="shape"/>
<feGaussianBlur stdDeviation="1" result="effect1_foregroundBlur_1563_23"/>
</filter>
<filter id="filter4_f_1563_23" x="96.5557" y="380.555" width="19.8887" height="19.8889" filterUnits="userSpaceOnUse" color-interpolation-filters="sRGB">
<feFlood flood-opacity="0" result="BackgroundImageFix"/>
<feBlend mode="normal" in="SourceGraphic" in2="BackgroundImageFix" result="shape"/>
<feGaussianBlur stdDeviation="3" result="effect1_foregroundBlur_1563_23"/>
</filter>
<filter id="filter5_f_1563_23" x="102.528" y="386.527" width="7.94434" height="7.94434" filterUnits="userSpaceOnUse" color-interpolation-filters="sRGB">
<feFlood flood-opacity="0" result="BackgroundImageFix"/>
<feBlend mode="normal" in="SourceGraphic" in2="BackgroundImageFix" result="shape"/>
<feGaussianBlur stdDeviation="1" result="effect1_foregroundBlur_1563_23"/>
</filter>
<filter id="filter6_f_1563_23" x="451.556" y="274.055" width="19.8887" height="19.8889" filterUnits="userSpaceOnUse" color-interpolation-filters="sRGB">
<feFlood flood-opacity="0" result="BackgroundImageFix"/>
<feBlend mode="normal" in="SourceGraphic" in2="BackgroundImageFix" result="shape"/>
<feGaussianBlur stdDeviation="3" result="effect1_foregroundBlur_1563_23"/>
</filter>
<filter id="filter7_f_1563_23" x="457.528" y="280.027" width="7.94434" height="7.94434" filterUnits="userSpaceOnUse" color-interpolation-filters="sRGB">
<feFlood flood-opacity="0" result="BackgroundImageFix"/>
<feBlend mode="normal" in="SourceGraphic" in2="BackgroundImageFix" result="shape"/>
<feGaussianBlur stdDeviation="1" result="effect1_foregroundBlur_1563_23"/>
</filter>
<radialGradient id="paint0_radial_1563_23" cx="0" cy="0" r="1" gradientUnits="userSpaceOnUse" gradientTransform="translate(284 284) rotate(90) scale(284)">
<stop stop-color="#FFCC4D"/>
<stop offset="1" stop-color="#FFCC4D" stop-opacity="0"/>
</radialGradient>
<radialGradient id="paint1_radial_1563_23" cx="0" cy="0" r="1" gradientUnits="userSpaceOnUse" gradientTransform="translate(320 106.5) rotate(90) scale(35.5 18)">
<stop stop-color="#FFD700"/>
<stop offset="1" stop-color="#FFD700" stop-opacity="0"/>
</radialGradient>
<radialGradient id="paint2_radial_1563_23" cx="0" cy="0" r="1" gradientUnits="userSpaceOnUse" gradientTransform="translate(319.5 107) rotate(-180) scale(35.5 18)">
<stop stop-color="#FFD700"/>
<stop offset="1" stop-color="#FFD700" stop-opacity="0"/>
</radialGradient>
<radialGradient id="paint3_radial_1563_23" cx="0" cy="0" r="1" gradientUnits="userSpaceOnUse" gradientTransform="translate(107 390.5) rotate(90) scale(35.5 18)">
<stop stop-color="#FFD700"/>
<stop offset="1" stop-color="#FFD700" stop-opacity="0"/>
</radialGradient>
<radialGradient id="paint4_radial_1563_23" cx="0" cy="0" r="1" gradientUnits="userSpaceOnUse" gradientTransform="translate(106.5 391) rotate(-180) scale(35.5 18)">
<stop stop-color="#FFD700"/>
<stop offset="1" stop-color="#FFD700" stop-opacity="0"/>
</radialGradient>
</defs>
</svg>
