<svg width="541" height="499" viewBox="0 0 541 499" fill="none" xmlns="http://www.w3.org/2000/svg">
<path fill-rule="evenodd" clip-rule="evenodd" d="M100.968 30.7253L68.0947 30.7253L68.0947 -1.90486e-05L67.1554 -1.90864e-05L67.1554 30.7253L34.2821 30.7253L34.2821 -2.04105e-05L33.3429 -2.04484e-05L33.3429 30.7253L-1.45746e-06 30.7253L-1.49852e-06 31.5908L33.3429 31.5908L33.3429 61.8834L-2.93545e-06 61.8834L-2.97651e-06 62.7489L33.3429 62.7489L33.3429 93.0415L-4.41345e-06 93.0415L-4.4545e-06 93.907L33.3429 93.907L33.3429 124.2L-5.89144e-06 124.2L-5.93249e-06 125.065L33.3429 125.065L33.3429 155.358L-7.36943e-06 155.358L-7.41048e-06 156.223L33.3429 156.223L33.3429 186.516L-8.84742e-06 186.516L-8.88847e-06 187.381L33.3429 187.381L33.3429 217.674L-1.03254e-05 217.674L-1.03665e-05 218.539L33.3429 218.539L33.3429 248.832L-1.18034e-05 248.832L-1.18445e-05 249.697L33.3429 249.697L33.3429 279.99L-1.32814e-05 279.99L-1.33224e-05 280.855L33.3429 280.855L33.3429 311.148L-1.47594e-05 311.148L-1.48004e-05 312.014L33.3429 312.014L33.3429 342.306L-1.62374e-05 342.306L-1.62784e-05 343.172L33.3429 343.172L33.3429 373.464L-1.77154e-05 373.464L-1.77564e-05 374.33L33.3429 374.33L33.3429 404.622L-1.91934e-05 404.622L-1.92344e-05 405.488L33.3429 405.488L33.3429 435.78L-2.06713e-05 435.78L-2.07124e-05 436.646L33.3429 436.646L33.3429 466.939L-2.21493e-05 466.939L-2.21904e-05 467.804L33.3429 467.804L33.3429 498.529L34.2821 498.529L34.2821 467.804L67.1554 467.804L67.1554 498.529L68.0946 498.529L68.0946 467.804L100.968 467.804L100.968 498.529L101.907 498.529L101.907 467.804L134.78 467.804L134.78 498.529L135.72 498.529L135.72 467.804L168.593 467.804L168.593 498.529L169.532 498.529L169.532 467.804L202.405 467.804L202.405 498.529L203.345 498.529L203.345 467.804L236.218 467.804L236.218 498.529L237.157 498.529L237.157 467.804L270.03 467.804L270.03 498.529L270.97 498.529L270.97 467.804L303.843 467.804L303.843 498.529L304.782 498.529L304.782 467.804L337.655 467.804L337.655 498.529L338.595 498.529L338.595 467.804L371.468 467.804L371.468 498.529L372.407 498.529L372.407 467.804L405.28 467.804L405.28 498.529L406.22 498.529L406.22 467.804L439.093 467.804L439.093 498.529L440.032 498.529L440.032 467.804L472.905 467.804L472.905 498.529L473.845 498.529L473.845 467.804L506.718 467.804L506.718 498.529L507.657 498.529L507.657 467.804L541 467.804L541 466.939L507.657 466.939L507.657 436.646L541 436.646L541 435.78L507.657 435.78L507.657 405.488L541 405.488L541 404.622L507.657 404.622L507.657 374.33L541 374.33L541 373.464L507.657 373.464L507.657 343.172L541 343.172L541 342.306L507.657 342.306L507.657 312.014L541 312.014L541 311.148L507.657 311.148L507.657 280.855L541 280.855L541 279.99L507.657 279.99L507.657 249.697L541 249.697L541 248.832L507.657 248.832L507.657 218.539L541 218.539L541 217.674L507.657 217.674L507.657 187.381L541 187.381L541 186.516L507.657 186.516L507.657 156.223L541 156.223L541 155.358L507.657 155.358L507.657 125.065L541 125.065L541 124.2L507.657 124.2L507.657 93.907L541 93.907L541 93.0415L507.657 93.0415L507.657 62.7489L541 62.7489L541 61.8834L507.657 61.8834L507.657 31.5908L541 31.5908L541 30.7253L507.657 30.7253L507.657 -1.34305e-06L506.718 -1.38088e-06L506.718 30.7253L473.845 30.7253L473.845 -2.70501e-06L472.905 -2.74284e-06L472.905 30.7253L440.032 30.7253L440.032 -4.06697e-06L439.093 -4.10481e-06L439.093 30.7253L406.22 30.7253L406.22 -5.42894e-06L405.28 -5.46677e-06L405.28 30.7253L372.407 30.7253L372.407 -6.7909e-06L371.468 -6.82873e-06L371.468 30.7253L338.595 30.7253L338.595 -8.15286e-06L337.655 -8.19069e-06L337.655 30.7253L304.782 30.7253L304.782 -9.51482e-06L303.843 -9.55266e-06L303.843 30.7253L270.97 30.7253L270.97 -1.08768e-05L270.03 -1.09146e-05L270.03 30.7253L237.157 30.7253L237.157 -1.22388e-05L236.218 -1.22766e-05L236.218 30.7253L203.345 30.7253L203.345 -1.36007e-05L202.405 -1.36385e-05L202.405 30.7253L169.532 30.7253L169.532 -1.49627e-05L168.593 -1.50005e-05L168.593 30.7253L135.72 30.7253L135.72 -1.63246e-05L134.78 -1.63625e-05L134.78 30.7253L101.907 30.7253L101.907 -1.76866e-05L100.968 -1.77244e-05L100.968 30.7253ZM34.2821 466.939L67.1554 466.939L67.1554 436.646L34.2821 436.646L34.2821 466.939ZM34.2821 435.78L67.1554 435.78L67.1554 405.488L34.2821 405.488L34.2821 435.78ZM34.2821 404.622L67.1554 404.622L67.1554 374.33L34.2821 374.33L34.2821 404.622ZM34.2821 373.464L67.1554 373.464L67.1554 343.172L34.2821 343.172L34.2821 373.464ZM34.2821 342.306L67.1554 342.306L67.1554 312.014L34.2821 312.014L34.2821 342.306ZM34.2821 311.148L67.1554 311.148L67.1554 280.855L34.2821 280.855L34.2821 311.148ZM34.2821 279.99L67.1554 279.99L67.1554 249.697L34.2821 249.697L34.2821 279.99ZM34.2821 248.832L67.1554 248.832L67.1554 218.539L34.2821 218.539L34.2821 248.832ZM34.2821 217.674L67.1554 217.674L67.1554 187.381L34.2821 187.381L34.2821 217.674ZM34.2821 186.516L67.1554 186.516L67.1554 156.223L34.2821 156.223L34.2821 186.516ZM34.2821 155.358L67.1554 155.358L67.1554 125.065L34.2821 125.065L34.2821 155.358ZM34.2821 124.2L67.1554 124.2L67.1554 93.907L34.2821 93.907L34.2821 124.2ZM34.2821 93.0415L67.1554 93.0415L67.1554 62.7489L34.2821 62.7489L34.2821 93.0415ZM34.2821 61.8834L67.1554 61.8834L67.1554 31.5908L34.2821 31.5908L34.2821 61.8834ZM68.0947 61.8834L68.0947 31.5908L100.968 31.5908L100.968 61.8834L68.0947 61.8834ZM68.0947 93.0415L68.0947 62.7489L100.968 62.7489L100.968 93.0415L68.0947 93.0415ZM68.0947 124.2L68.0947 93.907L100.968 93.907L100.968 124.2L68.0947 124.2ZM68.0947 155.358L68.0947 125.065L100.968 125.065L100.968 155.358L68.0947 155.358ZM68.0947 186.516L68.0947 156.223L100.968 156.223L100.968 186.516L68.0947 186.516ZM68.0947 217.674L68.0947 187.381L100.968 187.381L100.968 217.674L68.0947 217.674ZM68.0947 248.832L68.0947 218.539L100.968 218.539L100.968 248.832L68.0947 248.832ZM68.0946 279.99L68.0946 249.697L100.968 249.697L100.968 279.99L68.0946 279.99ZM68.0946 311.148L68.0946 280.855L100.968 280.855L100.968 311.148L68.0946 311.148ZM68.0946 342.306L68.0946 312.014L100.968 312.014L100.968 342.306L68.0946 342.306ZM68.0946 373.464L68.0946 343.172L100.968 343.172L100.968 373.464L68.0946 373.464ZM68.0946 404.622L68.0946 374.33L100.968 374.33L100.968 404.622L68.0946 404.622ZM68.0946 435.78L68.0946 405.488L100.968 405.488L100.968 435.78L68.0946 435.78ZM68.0946 466.939L68.0946 436.646L100.968 436.646L100.968 466.939L68.0946 466.939ZM506.718 466.939L506.718 436.646L473.845 436.646L473.845 466.939L506.718 466.939ZM472.905 466.939L472.905 436.646L440.032 436.646L440.032 466.939L472.905 466.939ZM439.093 466.939L439.093 436.646L406.22 436.646L406.22 466.939L439.093 466.939ZM405.28 466.939L405.28 436.646L372.407 436.646L372.407 466.939L405.28 466.939ZM371.468 466.939L371.468 436.646L338.595 436.646L338.595 466.939L371.468 466.939ZM337.655 466.939L337.655 436.646L304.782 436.646L304.782 466.939L337.655 466.939ZM303.843 466.939L303.843 436.646L270.97 436.646L270.97 466.939L303.843 466.939ZM270.03 466.939L270.03 436.646L237.157 436.646L237.157 466.939L270.03 466.939ZM236.218 466.939L236.218 436.646L203.345 436.646L203.345 466.939L236.218 466.939ZM202.405 466.939L202.405 436.646L169.532 436.646L169.532 466.939L202.405 466.939ZM168.593 466.939L168.593 436.646L135.72 436.646L135.72 466.939L168.593 466.939ZM134.78 466.939L134.78 436.646L101.907 436.646L101.907 466.939L134.78 466.939ZM134.78 435.78L101.907 435.78L101.907 405.488L134.78 405.488L134.78 435.78ZM168.593 435.78L135.72 435.78L135.72 405.488L168.593 405.488L168.593 435.78ZM202.405 435.78L169.532 435.78L169.532 405.488L202.405 405.488L202.405 435.78ZM236.218 435.78L203.345 435.78L203.345 405.488L236.218 405.488L236.218 435.78ZM270.03 435.78L237.157 435.78L237.157 405.488L270.03 405.488L270.03 435.78ZM303.843 435.78L270.97 435.78L270.97 405.488L303.843 405.488L303.843 435.78ZM337.655 435.78L304.782 435.78L304.782 405.488L337.655 405.488L337.655 435.78ZM371.468 435.78L338.595 435.78L338.595 405.488L371.468 405.488L371.468 435.78ZM405.28 435.78L372.407 435.78L372.407 405.488L405.28 405.488L405.28 435.78ZM439.093 435.78L406.22 435.78L406.22 405.488L439.093 405.488L439.093 435.78ZM472.905 435.78L440.032 435.78L440.032 405.488L472.905 405.488L472.905 435.78ZM506.718 435.78L473.845 435.78L473.845 405.488L506.718 405.488L506.718 435.78ZM101.907 31.5908L101.907 61.8834L134.78 61.8834L134.78 31.5908L101.907 31.5908ZM101.907 62.7489L101.907 93.0415L134.78 93.0415L134.78 62.7489L101.907 62.7489ZM101.907 93.907L101.907 124.2L134.78 124.2L134.78 93.907L101.907 93.907ZM101.907 125.065L101.907 155.358L134.78 155.358L134.78 125.065L101.907 125.065ZM101.907 156.223L101.907 186.516L134.78 186.516L134.78 156.223L101.907 156.223ZM101.907 187.381L101.907 217.674L134.78 217.674L134.78 187.381L101.907 187.381ZM101.907 218.539L101.907 248.832L134.78 248.832L134.78 218.539L101.907 218.539ZM101.907 249.697L101.907 279.99L134.78 279.99L134.78 249.697L101.907 249.697ZM101.907 280.855L101.907 311.148L134.78 311.148L134.78 280.855L101.907 280.855ZM101.907 312.014L101.907 342.306L134.78 342.306L134.78 312.014L101.907 312.014ZM101.907 343.172L101.907 373.464L134.78 373.464L134.78 343.172L101.907 343.172ZM101.907 374.33L101.907 404.622L134.78 404.622L134.78 374.33L101.907 374.33ZM168.593 404.622L135.72 404.622L135.72 374.33L168.593 374.33L168.593 404.622ZM202.405 404.622L169.532 404.622L169.532 374.33L202.405 374.33L202.405 404.622ZM236.218 404.622L203.345 404.622L203.345 374.33L236.218 374.33L236.218 404.622ZM270.03 404.622L237.157 404.622L237.157 374.33L270.03 374.33L270.03 404.622ZM303.843 404.622L270.97 404.622L270.97 374.33L303.843 374.33L303.843 404.622ZM337.655 404.622L304.782 404.622L304.782 374.33L337.655 374.33L337.655 404.622ZM371.468 404.622L338.595 404.622L338.595 374.33L371.468 374.33L371.468 404.622ZM405.28 404.622L372.407 404.622L372.407 374.33L405.28 374.33L405.28 404.622ZM439.093 404.622L406.22 404.622L406.22 374.33L439.093 374.33L439.093 404.622ZM472.905 404.622L440.032 404.622L440.032 374.33L472.905 374.33L472.905 404.622ZM506.718 404.622L473.845 404.622L473.845 374.33L506.718 374.33L506.718 404.622ZM135.72 31.5908L135.72 61.8834L168.593 61.8834L168.593 31.5908L135.72 31.5908ZM135.72 62.7489L135.72 93.0415L168.593 93.0415L168.593 62.7489L135.72 62.7489ZM135.72 93.907L135.72 124.2L168.593 124.2L168.593 93.907L135.72 93.907ZM135.72 125.065L135.72 155.358L168.593 155.358L168.593 125.065L135.72 125.065ZM135.72 156.223L135.72 186.516L168.593 186.516L168.593 156.223L135.72 156.223ZM135.72 187.381L135.72 217.674L168.593 217.674L168.593 187.381L135.72 187.381ZM135.72 218.539L135.72 248.832L168.593 248.832L168.593 218.539L135.72 218.539ZM135.72 249.697L135.72 279.99L168.593 279.99L168.593 249.697L135.72 249.697ZM135.72 280.855L135.72 311.148L168.593 311.148L168.593 280.855L135.72 280.855ZM135.72 312.014L135.72 342.306L168.593 342.306L168.593 312.014L135.72 312.014ZM135.72 343.172L135.72 373.464L168.593 373.464L168.593 343.172L135.72 343.172ZM202.405 373.464L169.532 373.464L169.532 343.172L202.405 343.172L202.405 373.464ZM236.218 373.464L203.345 373.464L203.345 343.172L236.218 343.172L236.218 373.464ZM270.03 373.464L237.157 373.464L237.157 343.172L270.03 343.172L270.03 373.464ZM303.843 373.464L270.97 373.464L270.97 343.172L303.843 343.172L303.843 373.464ZM337.655 373.464L304.782 373.464L304.782 343.172L337.655 343.172L337.655 373.464ZM371.468 373.464L338.595 373.464L338.595 343.172L371.468 343.172L371.468 373.464ZM405.28 373.464L372.407 373.464L372.407 343.172L405.28 343.172L405.28 373.464ZM439.093 373.464L406.22 373.464L406.22 343.172L439.093 343.172L439.093 373.464ZM472.905 373.464L440.032 373.464L440.032 343.172L472.905 343.172L472.905 373.464ZM506.718 373.464L473.845 373.464L473.845 343.172L506.718 343.172L506.718 373.464ZM169.532 31.5908L169.532 61.8834L202.405 61.8834L202.405 31.5908L169.532 31.5908ZM169.532 62.7489L169.532 93.0415L202.405 93.0415L202.405 62.7489L169.532 62.7489ZM169.532 93.907L169.532 124.2L202.405 124.2L202.405 93.907L169.532 93.907ZM169.532 125.065L169.532 155.358L202.405 155.358L202.405 125.065L169.532 125.065ZM169.532 156.223L169.532 186.516L202.405 186.516L202.405 156.223L169.532 156.223ZM169.532 187.381L169.532 217.674L202.405 217.674L202.405 187.381L169.532 187.381ZM169.532 218.539L169.532 248.832L202.405 248.832L202.405 218.539L169.532 218.539ZM169.532 249.697L169.532 279.99L202.405 279.99L202.405 249.697L169.532 249.697ZM169.532 280.855L169.532 311.148L202.405 311.148L202.405 280.855L169.532 280.855ZM169.532 312.014L169.532 342.306L202.405 342.306L202.405 312.014L169.532 312.014ZM236.218 342.306L203.345 342.306L203.345 312.014L236.218 312.014L236.218 342.306ZM270.03 342.306L237.157 342.306L237.157 312.014L270.03 312.014L270.03 342.306ZM303.843 342.306L270.97 342.306L270.97 312.014L303.843 312.014L303.843 342.306ZM337.655 342.306L304.782 342.306L304.782 312.014L337.655 312.014L337.655 342.306ZM371.468 342.306L338.595 342.306L338.595 312.014L371.468 312.014L371.468 342.306ZM405.28 342.306L372.407 342.306L372.407 312.014L405.28 312.014L405.28 342.306ZM439.093 342.306L406.22 342.306L406.22 312.014L439.093 312.014L439.093 342.306ZM472.905 342.306L440.032 342.306L440.032 312.014L472.905 312.014L472.905 342.306ZM506.718 342.306L473.845 342.306L473.845 312.014L506.718 312.014L506.718 342.306ZM203.345 31.5908L203.345 61.8834L236.218 61.8834L236.218 31.5908L203.345 31.5908ZM203.345 62.7489L203.345 93.0415L236.218 93.0415L236.218 62.7489L203.345 62.7489ZM203.345 93.907L203.345 124.2L236.218 124.2L236.218 93.907L203.345 93.907ZM203.345 125.065L203.345 155.358L236.218 155.358L236.218 125.065L203.345 125.065ZM203.345 156.223L203.345 186.516L236.218 186.516L236.218 156.223L203.345 156.223ZM203.345 187.381L203.345 217.674L236.218 217.674L236.218 187.381L203.345 187.381ZM203.345 218.539L203.345 248.832L236.218 248.832L236.218 218.539L203.345 218.539ZM203.345 249.697L203.345 279.99L236.218 279.99L236.218 249.697L203.345 249.697ZM203.345 280.855L203.345 311.148L236.218 311.148L236.218 280.855L203.345 280.855ZM270.03 311.148L237.157 311.148L237.157 280.855L270.03 280.855L270.03 311.148ZM303.843 311.148L270.97 311.148L270.97 280.855L303.843 280.855L303.843 311.148ZM337.655 311.148L304.782 311.148L304.782 280.855L337.655 280.855L337.655 311.148ZM371.468 311.148L338.595 311.148L338.595 280.855L371.468 280.855L371.468 311.148ZM405.28 311.148L372.407 311.148L372.407 280.855L405.28 280.855L405.28 311.148ZM439.093 311.148L406.22 311.148L406.22 280.855L439.093 280.855L439.093 311.148ZM472.905 311.148L440.032 311.148L440.032 280.855L472.905 280.855L472.905 311.148ZM506.718 311.148L473.845 311.148L473.845 280.855L506.718 280.855L506.718 311.148ZM237.157 31.5908L237.157 61.8834L270.03 61.8834L270.03 31.5908L237.157 31.5908ZM237.157 62.7489L237.157 93.0415L270.03 93.0415L270.03 62.7489L237.157 62.7489ZM237.157 93.907L237.157 124.2L270.03 124.2L270.03 93.907L237.157 93.907ZM237.157 125.065L237.157 155.358L270.03 155.358L270.03 125.065L237.157 125.065ZM237.157 156.223L237.157 186.516L270.03 186.516L270.03 156.223L237.157 156.223ZM237.157 187.381L237.157 217.674L270.03 217.674L270.03 187.381L237.157 187.381ZM237.157 218.539L237.157 248.832L270.03 248.832L270.03 218.539L237.157 218.539ZM237.157 249.697L237.157 279.99L270.03 279.99L270.03 249.697L237.157 249.697ZM303.843 279.99L270.97 279.99L270.97 249.697L303.843 249.697L303.843 279.99ZM337.655 279.99L304.782 279.99L304.782 249.697L337.655 249.697L337.655 279.99ZM371.468 279.99L338.595 279.99L338.595 249.697L371.468 249.697L371.468 279.99ZM405.28 279.99L372.407 279.99L372.407 249.697L405.28 249.697L405.28 279.99ZM439.093 279.99L406.22 279.99L406.22 249.697L439.093 249.697L439.093 279.99ZM472.905 279.99L440.032 279.99L440.032 249.697L472.905 249.697L472.905 279.99ZM506.718 279.99L473.845 279.99L473.845 249.697L506.718 249.697L506.718 279.99ZM270.97 31.5908L270.97 61.8834L303.843 61.8834L303.843 31.5908L270.97 31.5908ZM270.97 62.7489L270.97 93.0415L303.843 93.0415L303.843 62.7489L270.97 62.7489ZM270.97 93.907L270.97 124.2L303.843 124.2L303.843 93.907L270.97 93.907ZM270.97 125.065L270.97 155.358L303.843 155.358L303.843 125.065L270.97 125.065ZM270.97 156.223L270.97 186.516L303.843 186.516L303.843 156.223L270.97 156.223ZM270.97 187.381L270.97 217.674L303.843 217.674L303.843 187.381L270.97 187.381ZM270.97 218.539L270.97 248.832L303.843 248.832L303.843 218.539L270.97 218.539ZM337.655 248.832L304.782 248.832L304.782 218.539L337.655 218.539L337.655 248.832ZM371.468 248.832L338.595 248.832L338.595 218.539L371.468 218.539L371.468 248.832ZM405.28 248.832L372.407 248.832L372.407 218.539L405.28 218.539L405.28 248.832ZM439.093 248.832L406.22 248.832L406.22 218.539L439.093 218.539L439.093 248.832ZM472.905 248.832L440.032 248.832L440.032 218.539L472.905 218.539L472.905 248.832ZM506.718 248.832L473.845 248.832L473.845 218.539L506.718 218.539L506.718 248.832ZM304.782 31.5908L304.782 61.8834L337.655 61.8834L337.655 31.5908L304.782 31.5908ZM304.782 62.7489L304.782 93.0415L337.655 93.0415L337.655 62.7489L304.782 62.7489ZM304.782 93.907L304.782 124.2L337.655 124.2L337.655 93.907L304.782 93.907ZM304.782 125.065L304.782 155.358L337.655 155.358L337.655 125.065L304.782 125.065ZM304.782 156.223L304.782 186.516L337.655 186.516L337.655 156.223L304.782 156.223ZM304.782 187.381L304.782 217.674L337.655 217.674L337.655 187.381L304.782 187.381ZM371.468 217.674L338.595 217.674L338.595 187.381L371.468 187.381L371.468 217.674ZM405.28 217.674L372.407 217.674L372.407 187.381L405.28 187.381L405.28 217.674ZM439.093 217.674L406.22 217.674L406.22 187.381L439.093 187.381L439.093 217.674ZM472.905 217.674L440.032 217.674L440.032 187.381L472.905 187.381L472.905 217.674ZM506.718 217.674L473.845 217.674L473.845 187.381L506.718 187.381L506.718 217.674ZM338.595 31.5908L338.595 61.8834L371.468 61.8834L371.468 31.5908L338.595 31.5908ZM338.595 62.7489L338.595 93.0415L371.468 93.0415L371.468 62.7489L338.595 62.7489ZM338.595 93.907L338.595 124.2L371.468 124.2L371.468 93.907L338.595 93.907ZM338.595 125.065L338.595 155.358L371.468 155.358L371.468 125.065L338.595 125.065ZM338.595 156.223L338.595 186.516L371.468 186.516L371.468 156.223L338.595 156.223ZM405.28 186.516L372.407 186.516L372.407 156.223L405.28 156.223L405.28 186.516ZM439.093 186.516L406.22 186.516L406.22 156.223L439.093 156.223L439.093 186.516ZM472.905 186.516L440.032 186.516L440.032 156.223L472.905 156.223L472.905 186.516ZM506.718 186.516L473.845 186.516L473.845 156.223L506.718 156.223L506.718 186.516ZM372.407 31.5908L372.407 61.8834L405.28 61.8834L405.28 31.5908L372.407 31.5908ZM372.407 62.7489L372.407 93.0415L405.28 93.0415L405.28 62.7489L372.407 62.7489ZM372.407 93.907L372.407 124.2L405.28 124.2L405.28 93.907L372.407 93.907ZM372.407 125.065L372.407 155.358L405.28 155.358L405.28 125.065L372.407 125.065ZM439.093 155.358L406.22 155.358L406.22 125.065L439.093 125.065L439.093 155.358ZM472.905 155.358L440.032 155.358L440.032 125.065L472.905 125.065L472.905 155.358ZM506.718 155.358L473.845 155.358L473.845 125.065L506.718 125.065L506.718 155.358ZM406.22 31.5908L406.22 61.8834L439.093 61.8834L439.093 31.5908L406.22 31.5908ZM406.22 62.7489L406.22 93.0415L439.093 93.0415L439.093 62.7489L406.22 62.7489ZM406.22 93.907L406.22 124.2L439.093 124.2L439.093 93.907L406.22 93.907ZM472.905 124.2L440.032 124.2L440.032 93.907L472.905 93.907L472.905 124.2ZM506.718 124.2L473.845 124.2L473.845 93.907L506.718 93.907L506.718 124.2ZM440.032 31.5908L440.032 61.8834L472.905 61.8834L472.905 31.5908L440.032 31.5908ZM440.032 62.7489L440.032 93.0415L472.905 93.0415L472.905 62.7489L440.032 62.7489ZM506.718 93.0415L473.845 93.0415L473.845 62.7489L506.718 62.7489L506.718 93.0415ZM473.845 31.5908L473.845 61.8834L506.718 61.8834L506.718 31.5908L473.845 31.5908Z" fill="url(#paint0_radial_1563_2)"/>
<g opacity="0.6">
<g filter="url(#filter0_f_1563_2)">
<ellipse cx="87.6627" cy="252.726" rx="3.46191" ry="3.75696" transform="rotate(90 87.6627 252.726)" fill="#640DFB"/>
</g>
<g filter="url(#filter1_f_1563_2)">
<ellipse cx="87.6614" cy="252.726" rx="1.73096" ry="1.87848" transform="rotate(90 87.6614 252.726)" fill="#640DFB"/>
</g>
</g>
<g filter="url(#filter2_f_1563_2)">
<ellipse cx="459.6" cy="283.884" rx="3.46179" ry="3.75696" transform="rotate(90 459.6 283.884)" fill="#640DFB"/>
</g>
<g filter="url(#filter3_f_1563_2)">
<ellipse cx="459.599" cy="283.884" rx="1.73108" ry="1.87842" transform="rotate(90 459.599 283.884)" fill="#640DFB"/>
</g>
<g filter="url(#filter4_f_1563_2)">
<ellipse cx="189.1" cy="96.9362" rx="3.46204" ry="3.75696" transform="rotate(90 189.1 96.9362)" fill="#640DFB"/>
</g>
<g filter="url(#filter5_f_1563_2)">
<ellipse cx="189.099" cy="96.9359" rx="1.73083" ry="1.87848" transform="rotate(90 189.099 96.9359)" fill="#640DFB"/>
</g>
<g filter="url(#filter6_f_1563_2)">
<ellipse cx="290.538" cy="408.516" rx="3.46191" ry="3.7569" transform="rotate(90 290.538 408.516)" fill="#2962FF"/>
</g>
<g filter="url(#filter7_f_1563_2)">
<ellipse cx="290.536" cy="408.516" rx="1.73096" ry="1.87848" transform="rotate(90 290.536 408.516)" fill="#2962FF"/>
</g>
<path d="M493.413 283.884L425.788 283.884" stroke="url(#paint1_radial_1563_2)" stroke-width="0.5"/>
<path d="M459.6 315.042L459.6 252.726" stroke="url(#paint2_radial_1563_2)" stroke-width="0.5"/>
<path d="M222.913 96.936L155.288 96.936" stroke="url(#paint3_radial_1563_2)" stroke-width="0.5"/>
<path d="M189.1 128.094L189.1 65.7776" stroke="url(#paint4_radial_1563_2)" stroke-width="0.5"/>
<defs>
<filter id="filter0_f_1563_2" x="77.9058" y="243.264" width="19.5139" height="18.9238" filterUnits="userSpaceOnUse" color-interpolation-filters="sRGB">
<feFlood flood-opacity="0" result="BackgroundImageFix"/>
<feBlend mode="normal" in="SourceGraphic" in2="BackgroundImageFix" result="shape"/>
<feGaussianBlur stdDeviation="3" result="effect1_foregroundBlur_1563_2"/>
</filter>
<filter id="filter1_f_1563_2" x="83.783" y="248.995" width="7.75696" height="7.46191" filterUnits="userSpaceOnUse" color-interpolation-filters="sRGB">
<feFlood flood-opacity="0" result="BackgroundImageFix"/>
<feBlend mode="normal" in="SourceGraphic" in2="BackgroundImageFix" result="shape"/>
<feGaussianBlur stdDeviation="1" result="effect1_foregroundBlur_1563_2"/>
</filter>
<filter id="filter2_f_1563_2" x="449.843" y="274.422" width="19.5139" height="18.9233" filterUnits="userSpaceOnUse" color-interpolation-filters="sRGB">
<feFlood flood-opacity="0" result="BackgroundImageFix"/>
<feBlend mode="normal" in="SourceGraphic" in2="BackgroundImageFix" result="shape"/>
<feGaussianBlur stdDeviation="3" result="effect1_foregroundBlur_1563_2"/>
</filter>
<filter id="filter3_f_1563_2" x="455.72" y="280.153" width="7.75684" height="7.46191" filterUnits="userSpaceOnUse" color-interpolation-filters="sRGB">
<feFlood flood-opacity="0" result="BackgroundImageFix"/>
<feBlend mode="normal" in="SourceGraphic" in2="BackgroundImageFix" result="shape"/>
<feGaussianBlur stdDeviation="1" result="effect1_foregroundBlur_1563_2"/>
</filter>
<filter id="filter4_f_1563_2" x="179.343" y="87.4741" width="19.5139" height="18.9238" filterUnits="userSpaceOnUse" color-interpolation-filters="sRGB">
<feFlood flood-opacity="0" result="BackgroundImageFix"/>
<feBlend mode="normal" in="SourceGraphic" in2="BackgroundImageFix" result="shape"/>
<feGaussianBlur stdDeviation="3" result="effect1_foregroundBlur_1563_2"/>
</filter>
<filter id="filter5_f_1563_2" x="185.22" y="93.2051" width="7.75696" height="7.46143" filterUnits="userSpaceOnUse" color-interpolation-filters="sRGB">
<feFlood flood-opacity="0" result="BackgroundImageFix"/>
<feBlend mode="normal" in="SourceGraphic" in2="BackgroundImageFix" result="shape"/>
<feGaussianBlur stdDeviation="1" result="effect1_foregroundBlur_1563_2"/>
</filter>
<filter id="filter6_f_1563_2" x="280.781" y="399.054" width="19.5138" height="18.9238" filterUnits="userSpaceOnUse" color-interpolation-filters="sRGB">
<feFlood flood-opacity="0" result="BackgroundImageFix"/>
<feBlend mode="normal" in="SourceGraphic" in2="BackgroundImageFix" result="shape"/>
<feGaussianBlur stdDeviation="3" result="effect1_foregroundBlur_1563_2"/>
</filter>
<filter id="filter7_f_1563_2" x="286.658" y="404.785" width="7.75696" height="7.46191" filterUnits="userSpaceOnUse" color-interpolation-filters="sRGB">
<feFlood flood-opacity="0" result="BackgroundImageFix"/>
<feBlend mode="normal" in="SourceGraphic" in2="BackgroundImageFix" result="shape"/>
<feGaussianBlur stdDeviation="1" result="effect1_foregroundBlur_1563_2"/>
</filter>
<radialGradient id="paint0_radial_1563_2" cx="0" cy="0" r="1" gradientUnits="userSpaceOnUse" gradientTransform="translate(270.5 249.265) rotate(-180) scale(270.5 249.265)">
<stop stop-color="#2962FF"/>
<stop offset="1" stop-color="#2962FF" stop-opacity="0"/>
</radialGradient>
<radialGradient id="paint1_radial_1563_2" cx="0" cy="0" r="1" gradientUnits="userSpaceOnUse" gradientTransform="translate(459.6 284.384) rotate(-180) scale(33.8125 18)">
<stop stop-color="#640DFB"/>
<stop offset="1" stop-color="#640DFB" stop-opacity="0"/>
</radialGradient>
<radialGradient id="paint2_radial_1563_2" cx="0" cy="0" r="1" gradientUnits="userSpaceOnUse" gradientTransform="translate(459.1 283.884) rotate(-90) scale(31.1581 18)">
<stop stop-color="#640DFB"/>
<stop offset="1" stop-color="#640DFB" stop-opacity="0"/>
</radialGradient>
<radialGradient id="paint3_radial_1563_2" cx="0" cy="0" r="1" gradientUnits="userSpaceOnUse" gradientTransform="translate(189.1 97.436) rotate(-180) scale(33.8125 18)">
<stop stop-color="#640DFB"/>
<stop offset="1" stop-color="#640DFB" stop-opacity="0"/>
</radialGradient>
<radialGradient id="paint4_radial_1563_2" cx="0" cy="0" r="1" gradientUnits="userSpaceOnUse" gradientTransform="translate(188.6 96.9357) rotate(-90) scale(31.1581 18)">
<stop stop-color="#640DFB"/>
<stop offset="1" stop-color="#640DFB" stop-opacity="0"/>
</radialGradient>
</defs>
</svg>
