<svg width="19" height="19" viewBox="0 0 19 19" fill="none" xmlns="http://www.w3.org/2000/svg">
<path d="M13.7441 11.7021C14.0975 11.9782 14.1576 12.4679 13.8815 12.8213C13.7435 12.998 13.5597 13.0916 13.3498 13.1173C13.14 13.1431 12.939 13.0968 12.7623 12.9587L9.16921 10.1514L6.36196 13.7446C6.22389 13.9213 6.04012 14.0148 5.83027 14.0406C5.62042 14.0664 5.41948 14.02 5.24276 13.882C4.88934 13.6059 4.82922 13.1162 5.10534 12.7628L7.9126 9.16967L4.31948 6.36242C3.96606 6.08629 3.90594 5.59665 4.18206 5.24323C4.45818 4.8898 4.94783 4.82968 5.30125 5.10581L8.89437 7.91306L11.7016 4.31994C11.9777 3.96652 12.4674 3.9064 12.8208 4.18252C13.1742 4.45864 13.2344 4.94829 12.9582 5.30171L10.151 8.89483L13.7441 11.7021Z" fill="white"/>
</svg>
