<svg width="248" height="217" viewBox="0 0 248 217" fill="none" xmlns="http://www.w3.org/2000/svg">
<g filter="url(#filter0_d_102_81)">
<path d="M118.542 37.2378V28.9065C118.542 25.1196 120.437 23.2261 124.229 23.2261H129.158C132.949 23.2261 134.845 25.1196 134.845 28.9065V34.2461H121.575V37.6165C121.575 39.3837 122.46 40.2673 124.229 40.2673H134.086V41.7821L132.57 42.9182H124.229C120.437 42.9182 118.542 41.0247 118.542 37.2378ZM121.575 31.7846H131.812V28.5278C131.812 26.7606 130.927 25.877 129.158 25.877H124.229C122.46 25.877 121.575 26.7606 121.575 28.5278V31.7846Z" fill="black"/>
<path d="M138.341 23.7563L138.682 23.2261H141.298L147.061 40.2673H147.819L153.582 23.2261H156.198L156.54 23.7563L149.905 42.9182H144.976L138.341 23.7563Z" fill="black"/>
<path d="M159.555 41.7821V40.2673H168.313C170.057 40.2673 170.929 39.3837 170.929 37.6165C170.929 35.824 170.234 34.8141 168.844 34.5869L164.332 33.8295C161.147 33.2994 159.555 31.57 159.555 28.6414C159.555 25.0312 161.451 23.2261 165.242 23.2261H171.574L173.09 24.3622V25.877H165.204C163.435 25.877 162.55 26.7606 162.55 28.5278C162.55 30.1183 163.296 31.0398 164.787 31.2923L169.299 32.0497C172.433 32.5546 174 34.3597 174 37.465C174 41.1005 172.079 42.9182 168.237 42.9182H161.071L159.555 41.7821Z" fill="black"/>
<path d="M112.945 65.2876V50.8711H114.702V63.6997H121.73V65.2876H112.945Z" fill="black"/>
<path d="M123.993 62.0909V50.8711H125.75V62.2789C125.75 63.2261 126.224 63.6997 127.173 63.6997H131.691C132.639 63.6997 133.113 63.2261 133.113 62.2789V50.8711H134.871V62.0909C134.871 64.222 133.804 65.2876 131.67 65.2876H127.194C125.06 65.2876 123.993 64.222 123.993 62.0909Z" fill="black"/>
<path d="M138.52 65.2876V50.8711H145.151C147.285 50.8711 148.352 51.9366 148.352 54.0678V55.5094C148.352 55.983 148.212 56.3869 147.933 56.7212L147.201 57.5988L148.08 58.33C148.54 58.7061 148.77 59.2633 148.77 60.0015V62.0909C148.77 64.222 147.703 65.2876 145.57 65.2876H138.52ZM140.277 63.6997H145.59C146.539 63.6997 147.013 63.2261 147.013 62.2789V59.9388C147.013 58.9917 146.539 58.5181 145.59 58.5181H140.277V63.6997ZM140.277 56.9302H145.172C146.12 56.9302 146.595 56.4566 146.595 55.5094V53.8797C146.595 52.9326 146.12 52.459 145.172 52.459H140.277V56.9302Z" fill="black"/>
<path d="M114.383 32.1828L105.673 22.6918L74 51.6922L82.7106 61.1832L114.383 32.1828Z" fill="#124F98"/>
<path d="M108.724 65.0412L104.181 69L91.3581 54.3205L95.9006 50.3617L108.724 65.0412Z" fill="#46C5EE"/>
<path d="M90.7656 53.7182L94.8393 58.1569L109.652 44.5942L105.578 40.1556L90.7656 53.7182Z" fill="#47C9F3"/>
<path d="M165.06 18.8285V15.7768H154.796V18.8285H165.06Z" fill="#46C5EE"/>
<path d="M76.6748 8.43926L85.9572 0L114.882 31.7407L105.6 40.1799L76.6748 8.43926Z" fill="#124F98"/>
</g>
<defs>
<filter id="filter0_d_102_81" x="0.336502" y="0" width="247.327" height="216.327" filterUnits="userSpaceOnUse" color-interpolation-filters="sRGB">
<feFlood flood-opacity="0" result="BackgroundImageFix"/>
<feColorMatrix in="SourceAlpha" type="matrix" values="0 0 0 0 0 0 0 0 0 0 0 0 0 0 0 0 0 0 127 0" result="hardAlpha"/>
<feOffset dy="73.6635"/>
<feGaussianBlur stdDeviation="36.8317"/>
<feComposite in2="hardAlpha" operator="out"/>
<feColorMatrix type="matrix" values="0 0 0 0 0 0 0 0 0 0 0 0 0 0 0 0 0 0 0.25 0"/>
<feBlend mode="normal" in2="BackgroundImageFix" result="effect1_dropShadow_102_81"/>
<feBlend mode="normal" in="SourceGraphic" in2="effect1_dropShadow_102_81" result="shape"/>
</filter>
</defs>
</svg>
